<mxfile host="Electron" modified="2021-12-24T14:40:59.835Z" agent="5.0 (Windows NT 10.0; Win64; x64) AppleWebKit/537.36 (KHTML, like Gecko) draw.io/16.0.2 Chrome/96.0.4664.55 Electron/16.0.5 Safari/537.36" etag="yfGg6r_YtK9ASjwdLR0S" compressed="false" version="16.0.2" type="device">
  <diagram id="I7jTsGJM7HQdjxDyEfAw" name="Page-1">
    <mxGraphModel dx="1102" dy="1025" grid="1" gridSize="10" guides="1" tooltips="1" connect="1" arrows="1" fold="1" page="1" pageScale="1" pageWidth="827" pageHeight="1169" math="0" shadow="0">
      <root>
        <mxCell id="0" />
        <mxCell id="1" parent="0" />
        <mxCell id="phTOm5S-JvDdTUJJrudE-14" value="" style="whiteSpace=wrap;html=1;fontFamily=Verdana;fillColor=#647687;fontColor=#ffffff;strokeColor=#314354;" parent="1" vertex="1">
          <mxGeometry x="110" y="260" width="620" height="570" as="geometry" />
        </mxCell>
        <mxCell id="phTOm5S-JvDdTUJJrudE-16" value="" style="whiteSpace=wrap;html=1;fontFamily=Verdana;fillColor=#ffcc00;fontColor=#ffffff;strokeColor=none;" parent="1" vertex="1">
          <mxGeometry x="110" y="810" width="620" height="20" as="geometry" />
        </mxCell>
        <mxCell id="phTOm5S-JvDdTUJJrudE-3" value="SD0" style="edgeStyle=orthogonalEdgeStyle;rounded=0;orthogonalLoop=1;jettySize=auto;html=1;exitX=0.5;exitY=1;exitDx=0;exitDy=0;entryX=0.5;entryY=0;entryDx=0;entryDy=0;fontFamily=Verdana;startArrow=classic;startFill=1;labelBackgroundColor=none;" parent="1" source="phTOm5S-JvDdTUJJrudE-1" target="phTOm5S-JvDdTUJJrudE-2" edge="1">
          <mxGeometry y="20" relative="1" as="geometry">
            <mxPoint as="offset" />
          </mxGeometry>
        </mxCell>
        <mxCell id="phTOm5S-JvDdTUJJrudE-1" value="MIMXRT1166DVM6A&lt;br&gt;CM7 @600MHz&lt;br&gt;CM4 @240MHz&lt;br&gt;GPU2D&lt;br&gt;1024KB SRAM" style="whiteSpace=wrap;html=1;fillColor=#fff2cc;strokeColor=#d6b656;" parent="1" vertex="1">
          <mxGeometry x="330" y="460" width="140" height="90" as="geometry" />
        </mxCell>
        <mxCell id="phTOm5S-JvDdTUJJrudE-2" value="Î¼SD Card&lt;br&gt;&lt;h2 style=&quot;background-repeat: no-repeat ; box-sizing: inherit ; padding: 0px ; margin: 0px&quot;&gt;&lt;span style=&quot;font-weight: normal&quot;&gt;&lt;font style=&quot;font-size: 12px&quot;&gt;XKTF-0803-0&lt;/font&gt;&lt;/span&gt;&lt;/h2&gt;" style="whiteSpace=wrap;html=1;fontFamily=Verdana;fillColor=#dae8fc;strokeColor=#6c8ebf;" parent="1" vertex="1">
          <mxGeometry x="353.5" y="630" width="93" height="60" as="geometry" />
        </mxCell>
        <mxCell id="phTOm5S-JvDdTUJJrudE-5" style="edgeStyle=orthogonalEdgeStyle;rounded=0;orthogonalLoop=1;jettySize=auto;html=1;exitX=0;exitY=0.5;exitDx=0;exitDy=0;entryX=1;entryY=0.75;entryDx=0;entryDy=0;fontFamily=Verdana;startArrow=classic;startFill=1;" parent="1" source="phTOm5S-JvDdTUJJrudE-4" target="phTOm5S-JvDdTUJJrudE-1" edge="1">
          <mxGeometry relative="1" as="geometry" />
        </mxCell>
        <mxCell id="phTOm5S-JvDdTUJJrudE-4" value="SDRAM&lt;br&gt;&lt;span style=&quot;font-size: 13px&quot;&gt;IS42S16160G-5BL&lt;br&gt;&lt;/span&gt;&lt;span style=&quot;font-size: 13px&quot;&gt;256Mb, 200Mhz 16Mx16&lt;br&gt;&lt;/span&gt;&lt;span style=&quot;font-size: 13px&quot;&gt;3.3V&lt;/span&gt;&lt;span style=&quot;color: rgb(51 , 51 , 51) ; font-size: 13px&quot;&gt;&lt;br&gt;&lt;/span&gt;" style="whiteSpace=wrap;html=1;fontFamily=Verdana;fillColor=#ffe6cc;strokeColor=#d79b00;" parent="1" vertex="1">
          <mxGeometry x="556" y="560" width="140" height="90" as="geometry" />
        </mxCell>
        <mxCell id="phTOm5S-JvDdTUJJrudE-7" style="edgeStyle=orthogonalEdgeStyle;rounded=0;orthogonalLoop=1;jettySize=auto;html=1;exitX=0;exitY=0.5;exitDx=0;exitDy=0;fontFamily=Verdana;startArrow=classic;startFill=1;" parent="1" source="phTOm5S-JvDdTUJJrudE-6" target="phTOm5S-JvDdTUJJrudE-1" edge="1">
          <mxGeometry relative="1" as="geometry" />
        </mxCell>
        <mxCell id="phTOm5S-JvDdTUJJrudE-6" value="NAND Flash&lt;br&gt;PN27G02B&lt;br&gt;2Gb (256M x 8)&lt;br&gt;3.3v" style="whiteSpace=wrap;html=1;fontFamily=Verdana;fillColor=#f5f5f5;strokeColor=#666666;fontColor=#333333;" parent="1" vertex="1">
          <mxGeometry x="556" y="467.5" width="140" height="75" as="geometry" />
        </mxCell>
        <mxCell id="phTOm5S-JvDdTUJJrudE-9" style="edgeStyle=orthogonalEdgeStyle;rounded=0;orthogonalLoop=1;jettySize=auto;html=1;exitX=0;exitY=0.5;exitDx=0;exitDy=0;entryX=1;entryY=0.25;entryDx=0;entryDy=0;fontFamily=Verdana;startArrow=classic;startFill=1;" parent="1" source="phTOm5S-JvDdTUJJrudE-8" target="phTOm5S-JvDdTUJJrudE-1" edge="1">
          <mxGeometry relative="1" as="geometry" />
        </mxCell>
        <mxCell id="phTOm5S-JvDdTUJJrudE-8" value="QSPI Flash&lt;br&gt;W25Q64JW&lt;br&gt;64M-BIT&lt;br&gt;1.8V" style="whiteSpace=wrap;html=1;fontFamily=Verdana;fillColor=#e1d5e7;strokeColor=#9673a6;" parent="1" vertex="1">
          <mxGeometry x="556" y="360" width="140" height="80" as="geometry" />
        </mxCell>
        <mxCell id="phTOm5S-JvDdTUJJrudE-11" style="edgeStyle=orthogonalEdgeStyle;rounded=0;orthogonalLoop=1;jettySize=auto;html=1;exitX=1;exitY=0.5;exitDx=0;exitDy=0;entryX=0;entryY=0.5;entryDx=0;entryDy=0;fontFamily=Verdana;startArrow=classic;startFill=1;" parent="1" source="phTOm5S-JvDdTUJJrudE-10" target="phTOm5S-JvDdTUJJrudE-1" edge="1">
          <mxGeometry relative="1" as="geometry" />
        </mxCell>
        <mxCell id="phTOm5S-JvDdTUJJrudE-10" value="POWER" style="whiteSpace=wrap;html=1;fontFamily=Verdana;fillColor=#f8cecc;strokeColor=#b85450;" parent="1" vertex="1">
          <mxGeometry x="140" y="475" width="120" height="60" as="geometry" />
        </mxCell>
        <mxCell id="phTOm5S-JvDdTUJJrudE-13" style="edgeStyle=orthogonalEdgeStyle;rounded=0;orthogonalLoop=1;jettySize=auto;html=1;entryX=0.5;entryY=0;entryDx=0;entryDy=0;fontFamily=Verdana;startArrow=classic;startFill=1;" parent="1" source="phTOm5S-JvDdTUJJrudE-12" target="phTOm5S-JvDdTUJJrudE-1" edge="1">
          <mxGeometry relative="1" as="geometry" />
        </mxCell>
        <mxCell id="phTOm5S-JvDdTUJJrudE-12" value="WIFI/BLE" style="whiteSpace=wrap;html=1;fontFamily=Verdana;" parent="1" vertex="1">
          <mxGeometry x="340" y="320" width="120" height="60" as="geometry" />
        </mxCell>
        <mxCell id="phTOm5S-JvDdTUJJrudE-18" value="" style="whiteSpace=wrap;html=1;fontFamily=Verdana;strokeColor=none;fillColor=#051a33;fontColor=#ffffff;" parent="1" vertex="1">
          <mxGeometry x="110" y="760" width="620" height="50" as="geometry" />
        </mxCell>
        <mxCell id="phTOm5S-JvDdTUJJrudE-19" value="" style="shape=image;aspect=fixed;image=data:image/png,iVBORw0KGgoAAAANSUhEUgAABXAAAADjCAYAAAAsRTzkAAAACXBIWXMAAA7DAAAOwwHHb6hkAAAAGXRFWHRTb2Z0d2FyZQB3d3cuaW5rc2NhcGUub3Jnm+48GgAAIABJREFUeJzs3XecXHW5P/DPc2Z2UzYJJYDSDERCMWjKntkUikRK1CQ0IQgqXNGfCvaKCsgq1mv32rsoigEUKSJFVi8Qkp0zuwTuChKlSRGkpW6yO3M+vz9moiFsNnPOnDa7n/frldd9eZnv93mSnZ3ynOc8X4M0DXp4OYAPADgSwJ4A/gHgDgBfNhd3p5mbiIiIiIiIiIiIRM/STkDqQw/nAvg6gPwQ/3kQwLnm4ofJZiUiIiIiIiIiIiJxUgG3CbCEk0FcuYOH+TAssnb8IZGkREREREREREREJHYq4GYcb8NEjMXfAOxRx8NX434cYktRiTsvERERERERERERiZ+TdgKyA2PxLtRXvAWAaZiKI+NMR0RERERERERERJKjAm6GsQ8TUD20LIg5ceQiIiIiIiIiIiIiyVMBN8v68S4AuwVaQ0yMJxkRERERERERERFJmgq4GVXrvv1g4IUOnos+GxEREREREREREUmDCrhZ1Y93Imj3bdXDUaciIiIiIiIiIiIi6VABN4O4Cm0IPvu2ylTAFRERERERERERGSlUwM2iMs4FsEeotQP4R7TJiIiIiIiIiIiISFpUwM0YehgP4kMhl5fxMB6PNCERERERERERERFJjQq42RO++xZ41JaiEmUyIiIiIiIiIiIikh4VcDOEXRiLsLNvqzQ+QUREREREREREZATJp51AsyPZAuAVAGYAOBjAdAD7ADjKzJ4NtNlEnAtgzwbSUQFXRERERERERERkBFEBNyCSewF4JYA5ADoAzAIwdpuHfTZo8bbWffvBBtN7uMH1IiIiIiIiIiIikiEq4O4AyZ0AvKr252gAh+xgyToAXwkcaALOAbBX4HVbs2AduCT3BLDGzDY2FFdERERERERERERioQLuEEjuDuA1AE4FcByA1gDLv2lmTweK14WxMHwoyJoh+YFHKLwTwAdI/hHANQCuNbPHGs5DREREREREREREIqECbg3JPQC8HsAZqI5GsBDbrEeY7tuJeDsa7b4FAAYeoTAFwDgAi2t/fJJ3ALgcwK/M7MmGcxIREREREREREZHQnLQTSBPJMSRPJ3kdgEcBfB3V2bZhircA8C0zeypQDtXZtx8OGW+bzQJ34O6zzf92ABwG4GsAHiH5O5JLSOYiyU9EREREREREREQCCVuobGok9wbw/wCcC2D3iLbdAGBq0K5VengPqoXjRm00F22BYpN/A/DSOh76KIAfA/iBmQUtEouIiIiIiIiIiEhIo6oDl+QCktcCeBjARYiueAtUu2+DFW9XYwyAj0QUP+gBZg6Afet8+N4ALgTwIMlrSM4PmpyIiIiIiIiIiIgEN+ILuCSd2hiAOwDcAmARov97bwDw5cCr1uBtqBZHoxB0/u0eCHY4G1D9d1sM4HaSt5JcFHC9iIiIiIiIiIiIBDBiC7i1wu0ZAP4C4GoAc2MM952Uu28BCzz/9iUNRjwcwLUkV5E8leSoHMchIiIiIiIiIiISpxFZwCV5DAAPwKUADoo53EYAXwy8ai3eihceIhaeH7iAW+/4hB15BYBlAEokj4toTxEREREREREREcEIK+CSnFcblXATgFkJhQ3efduHVhAfjjiPoCMUGu3A3dYsADeQvInk7Ij3FhERERERERERGZVGRAGX5F4kLwFwO+IdlbCtTQgz+7YfbwUwJeJcgnbgRtf9+3zHACiS/BHJKA+JExERERERERERGXWauoBLspXkBQDuA/AmAEnPYf22mT0eZAE9tCDK2bdbJD8DdzgOgLMB3EfyvSRzMcYSEREREREREREZsZq2gEtyHoAeABcDaEshhXDdt8BbEH33LTAOjwRcEdUM3OHsDOBrALpJzkwgnoiIiIiIiIiIyIjSdAVckhNJ/g+A2wBMTzGV75rZY0EW1Lpvz4shl6dtOtYHXBNnB+62ZqM6VuHzJMckGFdERERERERERKSpNVUBl+RcVLtu34V0c98E4IuBVxFnA9gv6mQQcP4tyRYAL4ohj+HkUS1e9+iQMxERERERERERkfo0RQGXZJ5kJ6pdtweknA4QtvvWYum+BQwPB1yxD9L72b8MwEqSnZqNKyIiIiIiIiIiMrzMF3BJHgBgBYCLAGSh4Beu+9bwZgD7R54NAPiBDzBLYv7tcPKo/jxvIrl3yrmIiIiIiIiIiIhkVqYLuCSXAOgG0J52Llv5fqjuW+KjcSUEC1zATXL+7XAWALiT5LFpJyIiIiIiIiIiIpJFmSzgkszVRiZcBWCXlNPZ2iYA/x1i3VmIq/u2qlkLuACwG4DrayMVMvl8FBERERERERERSUvmCmYkdwVwA6q32Gctvx+a2aNBFtBDC4CPxZTPFmFm4GZJDtWf9+Uk29JORkREREREREREJCsyVSCtzbu9HcDRaecyhM0AvhB4FXEmgKmRZ7M1p6k7cLd2MoDlJLOan4iIiIiIiIiISKIyU8AleTiA5QAOTjuX7fiBmT0SZAGXIQfDeXElVFOBj0AzeZG9DtytvQLACpJu2omIiIiIiIiIiIikLRMFXJKnA7gFwO5p57Id4bpvX4ozAUyLPJvne9xcDAZcMyWWTKKzJ4A/kXxN2omIiIiIiIiIiIikKfUCLslzAfwCQEvauQzjR6G6b4mPxpXQfwIFG59AcgKAnWPKJkptAK4meXbaiYiIiIiIiIiIiKQl1QIuyfMAfCvtPHZgAMB/B171UrwJwIGRZ7MtCzz/dt9Y8ohHHsAPSb477URERERERERERETSkE8rMMnPAvhYWvED+JGZPRRkQa37Nqm/28MBH/8IgA8COBvA9OjTiZwB+AbJVjP7ctrJiEhzIHkysn23wS/NbFPaSYiIiIiIiEj2WRpBSX4RwIfSiB3QPwHMMbNARVJ6OAvAT2PJ6IXeay6+EWYhyXYAZwJ4A4DJkWYVj0+Y2cVpJyEi2UfyXgAHpZ3HMF5kZk+mnYSIiIiIiIhkX+KjC0h+Btkv3t4H4H0ApgYu3i5DDkl2FgcfofCfpWYlM3svqmMV3gzgnsjyisenamM3RERERERERERERoVEC7gkPwXg40nGDIAAbgSwEMDBZvZ1M+sPvMv+OAPJdn0FHaHwAmbWb2Y/RXWkwvEAVjS6Z4w+T/J9aSchIiIiIiIiIiKShMQKuCTfAeDCpOIFdDuAI8xsoZndaGYMswmXIQfD+RHnNrx8+A7cbZkZzewaM5sH4DgAf4pq74h9meQb0k5CREREREREREQkbonMwCV5IoArAOSSiBdAH4BPmtnlUWzGEt4I4udR7FWnzWjHODOEKjjXg+RiAF8GcGBcMUIaBLDEzG5IOxERyR7NwBWR0a5YLH7ccZxd6n287/srC4XCFXHmJCIiIiLh5OMOQPKVAC5Dtoq3/0B1lMMvzcyPYkMuQw5MuPsW+EecxVsAMLNrSd6A6ozczwDYLc54AbQAuJzkkWZ2Z9rJiIiIiGTMYpJ7B3i8j2rDhYiIiIhkTKwjFEjuD+ByAGPijBMAAXwfwKFm9ouoircAgKk4DcDBke1Xn4bn39bDzAbN7PsADgHwXVQ/4GfBRADXBPxyIiIiIiIiIiIi0jRiK+CSnATgGgC7xxUjoNUAXmVmbzeztVFuTMIB8LEo96xTZPNv62FmT5nZOQBeBeCBJGMPYx8AV5Mcl3YiIiIiIiIiIiIiUYtlhALJPIArAUyPY/+ABgF8GsDnzWwglggeToPh0Fj2Hl4iHbjbMrM/kzwUwOcAvBsJzVIexmwAPwSgg81EREREREREJDKe511nZq1B140fP/71hxxyyNNx5CSjT1wzcD8D4JiY9g7iHwBON7Pb4wpAwkEJH49r/2FZsh24zwttthHAe0leB+BHqHbCpukMkj1m9uWU8xARERERERGRkeNAkoELuOvWrWuJIxkZnSIfoUByMYAPR71vCNcCmBVn8RYA4GEpkEr3LZDwCIWhmNmNAGYCuDntXAB8nuRRaSchIiIiIiIiIiISlUgLuCSnAPgp0r2lvgzgkwBOMLNYW9VJOLCUum8BoJJ+ARcAav/OrwbwBVQPiktLHsBlJF+UYg4iIiIiIiIiIiKRiWyEAskWAJcDmBzVniE8C+AkM/tzItF6cAqAlycSayh+Ngq4AGBmFQAfJdmL6kiFtpRSeRGAn5BcZGZpFpNFRERERCQh3d3dSxzHeXuQNQMDA6fOnz+/P66cREREohLlDNyLABQi3C+oBwAsMrN7kghGwlDC+UnE2o7nbC7Wphh/SGb2a5L3APgdgP1SSuM1AN4H4KspxRcRERERkQTlcrnJJAM117S1tUU+UlBERCQOkbxhkZwP4KNR7BVSN4B5SRVvAQAlnALgFYnFe6HMdN9uy8zuAjAfwF0ppvE5kmnNJhYREREREREREYlEwwVckhMB/BxArvF0QrkKwFFm9kRSAUkYgAuSircdD6ccf1hm9jiAowDckVIKYwD8rDbaQ0REREREREREpClF0YH7WQBTI9gnjCsBLDWzZOcWeTgZ6XbfAhnuwN3CzJ4FsBDALSmlMBvAeSnFFhERERERERERaVhDBVySHQDOiSiXoH4D4HQzG0wyKAmD4cIkYw7Jsl/ABQAzWwdgEYCrU0rhApIHpxRbRERERERERESkIaELuCTzAL6HdEYn/AbA65Mu3gIAenASgBmJx92W3xwFXAAws00ATgVwQwrhxwD4HklLIbaIiIiIiIiIiEhDGunA/RCAmVElEsBVSKl4S8JAfDzpuENitmfgbsvMBgCcjHRm4h4J4KwU4oqIiIiIiIiIiDQkVAGX5N4Azo84l3p4AN6QSuctAPTgRADtqcTeVpOMUNiamW0EcAKAe1MI/0WSO6cQV0REREREREREJLR8yHWfBzAhykTq8ACAxbUiYOJIGDx8HNm4EZ/YGY+mnUQYZvYvkscCuA3AlARD7wbgQgAfTDCmiIiIiIiIiDSxfD5/lJkFrgb99a9//Vcc+cjoFLiAS3IugDfEkMtw1gA43syeSDjuf3g4HgY3tfjP90+bhs1pJxGWmT1C8nhUxymMTzD0u0l+z8zuSzCmiIiIiIiIiDSpmTNnNmUDnYwsYUYofAVItA91AMCJZvZ/CcZ8ISeVkRHb03TjE7ZlZncBeHvCYVsAfCHhmCIiIiIiIiIiIqEFKuDWuibnxZTL9pxnZn9KOObzsIjjQRTSzOF5mnD+7VDM7BcAvp5w2BNJJv0cFhERERERERERCaXuAi5JA/DJGHMZynVIvsD3Qg4uSDuFbTycdgIR+hCAPycc81MJxxMREREREREREQklSAfuqQBmxpXIEB4BcJaZMcGYL8ASFmeq+xYA/JHRgQsAZlYGcBqAxxMMewzJoxKMJyIiIiIiIiIiEkpdBVySDoCLYs5la2UArzezpxOMOTTiwrRTGMKIKeACQO1wuqTn4SbdTS4iIiIiIiIiIhJYvs7HLQHwsjgT2cbFZnZ7gvGGRA+LAHSknccQRtIIBQCAmV1D8mcAzkoo5JEkD8vC80waQ3JPABeg/tez0YgAngOwBsA6AGsBPADgLjNbk2Zikk0k3wDgyLTzEADVi9pP1f48CWCVmd2bbkoiIiIiIpKkegseH4k1i+e7F8AXEow3nE+kncCQRsghZkN4L4BXAdg3oXgfAXBCQrEkBiQPAvAHAPulnErTIvkAgF4AVwP4nZk9l3JKkg2HA3hb2knI0Eg+CeBWVH9vLzez/pRTEhERERGRGO1whALJIwDMTyAXAPABvNXMNicUb7tYxGuQze7bAbTjibSTiEOtE/BsVLsFk7CE5KEJxZKIkZwL4DaoeNuo/QGcDOCnAJ4geS3Jo9NNSUR2YA8ArwPwMwCPkfwmyekp5yQiIiIiIjGppwP3Q7Fn8R/fzswt7Ybz005hOx41g592EnExs5tJXoJkRikYgPdAXWZNh+SxAK4EMDHtXEaYVgCLACwieTuA883szynnJCLD2xnAOwGcQ/JKAB8zs7+nnFPmrV69esz69etfQvIl5XJ5ci6XayE5yczG+L4/aGYVAGtJbnYc51GSjwF43HXdwbRzl+0jaaVS6cUAXpLL5V5cqVTaAIwH0EpyjJltArCR5ACAf5XL5UfN7NG5c+euTTXxjCKZL5VKbb7vj3Mcp3VwcLCtpaVlg+M4Zd/3N7iuqzFMknlDvS74vt9mZmPMzAEwAGCtmW0i+aTv+w89+OCDjy1durSScupNadmyZbl9991339bW1qkAdgOw5d/bATDo+/46x3Ge9X3/0XK5/PD8+fOfSTllqVNXV9fYiRMnjsnn8xP6+/tb8vn8GDPrL5fLm9esWbN+4cKFG9LOMU6dnZ3OSSedtNumTZvacrncBDMzAONJbvl7rwGwJs73RhvuP5LcF9U5ibm4EtjKYwBeloV5jCzh1SCuTzuPIRn+bO04Ku004kTyRQDuAzApgXAbAexjZs8mEEsiQPJMAD8E0JJ2LqPEzwG808zWpZ1IECTvBXBQ2nkM40Vm9mTaSWwPye8AeEfaeUgoAwC+DeAiM1NRCtVi7bPPPvsKx3EKJF0zmw7gxUH3MTPf9/2/m9mdJFcBuL1QKNwffcbRKBaLy81s73ofT/KyQqFwXpw5Ra2np2dKpVIpACiY2SxU7yppDbqPmT1L8k4zu7NSqfQ4jnPHaCrW9/X1Tdi0adMskrMATCW5r+M4+5LcA8N/XxwA8ASAxwH8zXGceyqVyr2Dg4N3z58/P/HRLqVS6b9IBjqouKWl5WUzZswY0UWH0WbFihUvyuVyc0gWHMcpAJgKYEyQPUiWzewhACWSK0mu7OjoGKljDBvied74XC7XQfLwSqUy38ymIcDrsJk9RrKH5Aozu9513adiTFfq4HnengBmk5wBYAqAfc1sHwA77WDpBpKPOY7zGMn7SN7rOE7fNddc89fOzs6maULs6urKt7W1HZrL5aajehbYQST3AbA76muCHUD17IqHAdzv+/79AO5zHOfORou7OyrgXozq4UBJON3MLkso1rDo4VZU5/9lD/ELK+BNaacRN5LnA/h0QuHeZ2ZfTyiWNKD2vLgYO3jtksjdD+CNZnZH2onUSwXcxqiAOyI8DOAtZnZz2omkwfO8FpKvNLPjARyLahdm5MzsPpLXDw4O/mbevHkPxhEjrJFawPU876Ukj6/9bKfGEYPkOjP7I8lrH3jggVtGYiee53kvR/WumwVmdiDJHY7WC2AQQA/JO8zsZtd1745iU8/zzsDwBYR2VH/fg/gKql+24/SU67qXh1nY19fX2t/f/5Yga0jeWigU/i9MvKF0dXWN3WmnnabWmrvafN9vcxwnT3Kzma0lOUByg5n9c9y4cf+YPn163P+eL+B53k4kjzGzkwEchhi+K5BcDeA6kldkuZjred5LARwXZE0ul/vVrFmz6j4Ho7Oz01myZMlhAJaSXIiABfJhVACsIPlj13X/aGZJjVbcoVtvvXWX8ePHnxJkjZndOHv27Ifiyikqnue1mNkRJF9rZoeR3CviEGvMbEXtDs8bXdd9POL9G9bb27szyVdXKpWjzOwwxNNMSJIPOI7TC2BFpVK5I+hryXZf2EjmATwEIOof3lBWAZhtZqlX5VnCQhB/SDuP7SI+a4XMjneIDMlxqB5o95IEwv0VwCFZeoOQ5yOZA/ANAOemncso1g/gZDPL7uvjVlTAbYwKuCMGUe3G/YCZJf6FOg333HPP5I0bN55N8o2ojpdIhJn5JG8ul8s/mjt37oqk4g5nJBVwa8WC40i+A8CshMM/TPInra2tv272Tk3P83YDcCaAk5DMZ+wtHjKza83s2tmzZ/8l7CalUulPJPePMrEkkOwrFAqvDbP23nvvnbh+/fqgxdhPuK77szDxAGD58uW7trS0HO44zhEk55jZvvUW+Gvf5/9J8uHBwcHz4r6wVStWvpvkEjOr94D2htRe72/K5/NfnzlzZl8SMYPwPG8Rqu/9dSO5oJ47SpYvXz6upaXldFTPLar7/SUMM7uvUqlc3NHR8b9xxqlXsVg8yMxuDLjs/7muG3RNYkql0iEkzwbwaiRz9zNQLWKWHMe5dnBw8Pdz585N7Xynzs5OZ/HixccAWArgKKRwhy/JRxzH6apUKjcWCoXlZlYe7vHDvcidgGSKtwDwkSwUbwEATKzjOBxDZq/2RcnM+kl+FMAvEwh3EKpXam9LIJYERHIsgF+gemCPpGccgMtJzjOzyLo6RCRWhup83ENInthso1CC6Onp2d33/Xdv2LDhNABjk45fK24cl8/njysWi38C8Mksj1doFiStp6fnJJLvIvnSlNJ4iZldNDg4eG6xWPy867pXNttF/7vuumvqwMDA21A9tDSqTrkgppB8J8l3ep53v+/717W2tv5q5syZj6aQiwxh2bJlualTp84DcAbJhWaWJ6tP8y3/tx6118K9AOyVy+Viu4jW09MzheSHUT23wamOokxG7e+4sFwuH1cqlf5YLpe/MGfOnPsSSyAFy5cvH9fa2vpmkm81s8lJxCR5oOM4Py+VSlcPDg6er1nl0enu7j7ScZy3k0zjrnMzM5ek29LS8gnP84okr3nmmWd+k9QM3a6urvykSZNOrl0UTuuzBQDAzPYh+SbHcd5UKpXWFovF60le3tHRURzq8cNdSTszphy39acQVzJiwSKORVZHJ/zHqCjg1lwGoDuhWEkcmiYBkdwZwA1Q8TYrJgD4EUmNsBBpLq8CcBPJEXfwY2dnp1MsFs/0ff8WVN/LEy/ebsvMjjKzGz3P+2BXV1ciHWEjUbFYPMjzvCtIfhUpf8Gq2d3Mvux53m/vuOOO/dJOph6e540vFovvHxgYuBHA6UineLutqY7jvLtSqdxWLBZ/3NPT46ad0GjW1dU1tlgsnj116tTlAC4FsCipTtYwurq68sVi8WyS15NcEvHoj6CM5DGO41zved5H+/r6As/fbgbFYvGYlpaWmwGcl1Txdmskj29pabnG87yDk4490qxcuXL/YrH4M8dxfo4M1L1qv79zzOzTkydP7i4Wi509PT2xNpGuWLFi7qRJk64l+UVk47PF1iaZ2WmO41xRLBa7PM87Y9vXlSFf8EjuimobddwI4KMJxKmP4cK0U9ihUdKBCwC17obPJhRuKclY5uNJOCT3BnArgCPTzkWepwMB52qJSCbMAfCDtJOIUrFYnLpkyZLfmtnFSO7Wv3q1AHjPpEmTLl21atUeaSfTTLq6uvKlUunDAH5vZpkr7pnZrJaWluuKxWKoW+KT4nneiQBuNbP3IYMHv9a6Jo/2ff9Kz/N+WywWX7ts2bIkDs4WVMclFovFsydOnHi7mV2EEAc7Jq2np2fKxIkTrzKzi0i2pZ3PFrWC9zkbN278/cqVKw9MO5+o9Pb2TisWi1ea2Y9qB1ilhuR+JK/o7u6emWYezWr16tVjPM/7WC6Xu8nMjko7n+2YYGZvrlQqt3qe942VK1fOiHLzvr6+1u7u7ovz+fyvSR4S5d5xMLOpAD7X39+/fNWqVf9+vdveFavTEOIE1xB+b2YrE4izQyziGABHpJ3HDjl4OO0UEnY1gCRmC00CcHwCcaQOtRfV5QAOTTsXGdJJaScgIqGcRjL7n3XqsHLlyoVmdg3JTH+ZIzl3YGDgumKxmOWZ3Jnhed5uEydOvJTku7LcBYjqF83vFIvF96edyLa6urrGep73eQBfB7Bb2vnUabaZfWfq1KmZK9iPRJ7nzSmVStfVCrdN8RzxPG9OpVL5LYCXp53L9pjZtHw+f1WpVFqYdi6NWLZsWa5UKr29Uqlcl6WLaGY20XGcn995553T086lmaxatWqftWvXLkP1bIvMXczbVu29/4RcLrcsqj1vu+22vfr7+3/rOE5SUwaitPuGDRv+fffM9gq4b0woma8mFKce2e++BdbbLNR9OuRIUOvC/WJC4U5NKI4Mg+SWecRJHq4hwWT2w7OI7NDStBNoBEkrlUofzuVy30N1rEvmmdkejuP82vM8vXYOo9Ztcx2AuWnnUi8ze1+xWPx42nls0dvbO23ixInXoTouQeR5ent7d/Y872sAfg2gaW5H7+7ufiOAX6Zx+35Qtc7g73qe15QHwd555517T5069XKSH0c2Rq5sa9Lg4OAPbr311l3STqQZeJ63aHBw8IasX+yOU6lUOmDs2LFXYoQ0hr2ggEtyLwDzEoh9N4BbEoizQyzhVbCmuE17tHXfbvFLAA8lEOfVWbodZzQieQKAmwDsmnYuMqyd0k5ARELbN+0Ewurs7HRKpdJnSb4L1QPamgbJXQD8sre3d1rauWRRsVjsyOVyv0IT3Ma9LTN7e6lU+kjaeZRKpVdUKpVlAA5IOxfJnu7u7iMrlcofUL2LqmleP0ul0mmO43wawx++nim1uZ4fKxaL70o7lyBqz5HrALSnnctwzGzvsWPHfk1ncgyvWCyeaWbfRJNc7I6D53kvJXk5qgcrjghDdeAej2Re1L+UoRNcP5F2AnXh6CzgmtkggK8kEGo8kpn9LEMg+V8ArgAwLuVUZMf0gUmkeTXl7++yZctyixcv/iKAMyLemmb2hJk9iGpzwd0kV5N8FMBAxLEmVSqVH6tz6Pl6e3vnm9nPAER6Ed3MNgB42MzuQfXn2odqM0Tkd7ORfGepVDo56n3rtWLFirkkfwVdAJdtLF++fFypVPqM4ziXANgz7XyC6O7uXgrg82jS9y0z+7DneeemnUed3uE4zk9rFxszz8yOKpVKJ6SdR1Z5nneOmV2c8iF/qVq1atUeJC/BCHtfHOpKVhK/CI8BuCyBODtEDwtAvDLtPOoyig4wG8JPAXwO1SJrnE4CcGXMMWQbJM9D9QOaiIjIC0ydOvXTAE5pdB8zu8/M/lwul1eR/L8JEyY8On369O0Want6enavVCoHmtnLzewwkvPQ2Ay5l4wdO/Y7nZ2dZ3R2dvoN7DMiFIvFWZVK5ScAxjayD8l1juN0ASjlcrlVJB/H4V/iAAAgAElEQVSYNWvWdgu1y5cvHzdmzJj9SB4KoN3MXkXyRQ3m8PlSqfS39vb2uxrZJ6hisdhhZpcg4tudzcz3ff9xM3vEzDaRXF87eGwigDYz26vRfzOJ18qVK/fP5/PfaYYDe7bV29t7lO/7X4iwAPVPACUze6BSqTzkOM4GAGsAwMwmoNpAMsX3/amO48wguV9Ecc8rFouPFAqFqyPaLxZmdlraOYRwQV9f383Tp09fn3YiWdLT0/Nu3/c/FMPWAwD+AeCfJDeZ2SZUPw+11Qr/+9beH1LX2dnpDA4O/k9Uh++RfBrAfY7j/I3ko77vr8vlchtJbiY5DtXXj0lm9mIzmwJgCsl9AUR+MOfzCrgkJwBYEHWQIfzIzKLuagjHcBGy0ge8Y6O2gGtma0n+BvHPZ15Y+3A66r9UJYFkDsA3UR2qLiIi8gLFYvFsNNB5a2bPkryM5DLXde8Psnb27Nn/AvAvALcD+O699947cd26dScBeHPthOAw+cxbtGjRf3V2dv44zPqRwvO8PUl+HyGLt7UC4//mcrlLfN//3/b29sF6186fP78fwD21P5fXZit3ADgL1buxwnzpGgPgy57nvdZ13bpzaUSxWJzqOM73STZcvCVZBvBnVJ/rKwH8tVAoDPv36Ovrm7B+/fqX5vP52b7vzzWzDoywbqdmVSwWjzWzr5CclHYuQfX09EypVCrfwPbP66kLyfvN7PLBwcHfz5s378Ega2+77ba9xo0bt9D3/aVm9rJG8jCzL9xxxx2r582bd08j+2Rcv5nd5/v+vQAeN7N1ADbW/ttOJHcxs71JHmRmByCarurd+/v7zwTw7Qj2GhF6e3tPqFQqH4xou+fM7Ebf91fmcrni1Vdf/Y8dXXjectHbcZxC7YL3LKQwS3nx4sVvR4Pz9El6juPcSPLmQqHw96DrV61a1TY4ODgL1ZEkc0jOieJw1m03OBrJ/ANfmkCMHaKHw5um+xYY7R24QLULN+4C7m4AZgPwYo4z6tW+bPwCEXRUiYjIyFQsFo8yswtCLt9A8tvr1q374YIFCzZFkc/BBx+8DsAly5Ytu3S//fY7PZfLfSjMLadm9uHu7u6bOjo6RuVnu+XLl48D8EMz2yPkFn8ql8ufmTNnzn1R5FMb67YSwErP8w4m2Wlmgc8EIXkggHcjgdFfy5cv39VxnJ9EcMvzYyR/MDg4eNX8+fOfCbKw1vm2qvbnJ52dnc6SJUs6amcavBbAzg3m9jxtbW1L1q9fP1xR73QAHwuy56ZNm+aNHTt2Q2OZDW/8+PGVOPffFsk3RVgkS9Ty5cvHkfweGjtv4R6SXy4UCjeF3eDwww9/DMBPAPykt7d3frlc/oiZzQq53fiWlpbvrVixYvHcuXPXhs0pg/4G4EaSXevXr+9ZsGBBuZ5FnuftRPIYAKeY2fwGczh79erVP5o2bdrmBvdpesVisaNSqXwJDf7e1wqXPxg7duwtw92hNJRtLnp/zfO88SSPdRzneJKvRGN3MNVlxYoVLwLw3jBrzcwneT2A7xQKhbsbyWPGjBkbUD2Y/Tag+rw3s6NJvhrVptnWMPtuW8B9VSNJ1qloZn9NIE49Lk47gYBG5QzcrdwC4AEA+8ccZyFUwI1V7cvG7wAckXYuIiKSTZ7n7QbgqwjXDXlruVz+4Ny5c5+IOC0AwNKlSysAfnHbbbfdMnbs2G8i+KEv42uF6bdHn132jRkz5oLa+IKgniP5sUKh8PvIk6pxXfdekqeXSqVzAHwQwQ9POvfOO+/89cyZMx+NIb1/a21t/UKDt3mvJfnfZnbZjjpt69XZ2el3dnauALDC87xPmNkSkm9BRKd/1y6gbFepVNpEBru1cuLEiWtqX7RHDDOL+rDECoCtb1Mfh5DFhx1paWl5fwMjHzYD+Or999///dprdCRmzZq1HMCJxWLxdY7jXBzy0OspuVzuAgCpH3jYoAEA1/m+f2lHR0cxzAau665BdWThlaVSqZ3kpxD+NWL3NWvWvAbAVSHXjwi9vb07+77/TZKhfy9rHdSdhULh9qjycl13I6rf+X+3cuXKyS0tLWdUKpUzG7h4u0P5fP79CHemzj0kP+y6bkOF2+2pPe9/A+A3t9566y7jx48/EcBpQV/vhurAjVs2um+LOAzAUWnnEYgzujtwzYwkf474D51bCOAzMccYtUjuBeB6AK9IOxcREckukp8xs6C3YxPAV9vb27+RxGG5hx9++GOrV68+fc2aNd9FwEYIM1vY09PzstmzZ/8lpvQyqbe3d36lUnlD0HUk+8zsLYVC4fE48tpa7bnzbc/zHiL5jYC3PbYMDg6+B8B5MaUHz/NOBXBcA1t0lcvl8+K6wAEAtTESvwHwG8/z5pB8f5iuZklUhWSvmS0HcK+Z/XXz5s2P1kaOPE9XV1d+11133XXjxo2TW1tb9wTwElTnPr4M1WLchKDBS6XSIbWCfxiPm9mb29vbYxtTUCgUriwWi71m9lMAU4KuN7OlpVLpN+3t7Suizy52GwH8slwufz/K14329vZSX1/fSRs3bvx0A3N4T8QoL+D6vn9x2JnkZuZXKpVvOY7z9agu5g1lzpw5TwP4H8/zvkvyBDN7H4B9o4yxfPnyXQG8Lug6M7t58+bN7xrqtS4ORxxxxLOodfh3d3cXcrncO0gejTq6p//9YYTkHgAamu9ShwqAX8ccoz6GT6WdQkBEPx5JO4kMSKKA20FyjJmN+lsxokZyOqrF20hfrEVEZGTp7u5eYmavDrKmNr/+o+3t7Yl+1pw2bdpmz/PeBuCXADoCLDXf998P4P/Fk1n23HDDDW3lcvmLZhboFk+Sd4wfP/6tSR9W47rudaVSqZXk1wIuPcXzvG+5rhv53XM9PT17VSqViwL+E25BM/v2Nddc86UkD9FzXXclgNd3d3cf6TjORwC8PKnYUpcSyUs3bdp0S62wsEO12+WfrP15XtG0s7PTWbRo0X6O4/yz3gQ6OzsdVA80DjMj8m8A3tje3h77xZ1CoXD/Pffcc9KGDRsuQfCuUSP5ub6+voVBb01PC8mymV1aqVS+XivARW769OkDJM/r6enJkwxcfANwxK233rpLvc/dkaZUKi0meXzI5Rt8339PR0fHzZEmNYzaxb0rPM/7HarnG7wH1TGWDcvn869DwLsDzOzOsWPHntPe3p7K72Stk724cuXKA3O53HsBLMIwhdytZwgtGO6BEekys7pfyOPCbsxHMuMiovQvm49ErghkmZn9DUDcIzjGACjEHGPUITkX1cMxVLwVEZHt6urqGpvL5S4Muq5SqVyYdPF2C9d1B9va2t6B6knndTOzY1atWhXJKcnNYJdddjkn6KnQJHufeeaZt6R10nh7e/tvAfwoyBozy5OM5dyGSqXy0QZO+r6ovb39v5Ms3m6to6Pjf6+99trjfd8/H8BImgXajCoAfpvP51/ruu7JhULhyqgKYJ2dnX6hULi/dvt0XRYtWvRqkjODxjKzJ/L5/Jmu68ZevN3ikEMOeXpgYOBNJAMdilkzdePGjWE7TRNF8k9mdpzrup+Iq3i7hZlx8+bN5wMIfFgUgHxbW1tDB1Y1q66urrEkQ50TQHIdgNMKhUJixdutua476LruzyZMmHCU7/uXRHGIvOM4Qe9MqZTL5Q9n4YLKnDlz7nNd950ATgZQ2t7jti7gJvGkj21eVSDN130LYHSPT9hGEs+jwxOIMWqQPBHVGcaT085FRESybdKkSWcFvRXQzL7V0dHxi7hyqschhxzyNIBAhWeSzsDAwKkxpZQp99xzz+RcLnd2kDUkH9m0adObFy5cmOqM0nXr1v03gEDFGjM7uaurq+ETp7fW09PzMsdxloRc/gXXdX8WZT5hdHZ2+h0dHb9oaWk5Gln5bji60MyuBnCs67rvmzlzZl/qCZFmZu8JsXTAzP4r7nnTQ5k/f/4zvu+fDSDwa5OZnet5XuyHOTXgKZIfKBQKZ7muG6agGsr8+fP7a/NwA/N9f1SOZ5k0adJZAPYMsbQ/l8v9V1zzXoM4+OCD13V0dFyYy+VORgONeqtWrWojOTvgsluiOgw1Kq7r9rS3t7/OzD6OIV5fti7gJtFxeGMCMYbFHsyDJTLrN2oq4P5HEh/2DksgxqhA8mwAlyPcMHERERlF+vr6JgA4J+CyFX//+9+/HEc+QbmueyOAPwVcdmrt9uERbcOGDecGPPxn0Pf9c7NwW+yCBQs2OY7z6YDLdp8wYcKCKPMg+VGSYZ4rv3Nd99tR5tKoGTNmPOm67jkkP2BmI+oQsQz7PzN7XXt7+7uTLMztSHd393EAwhxc9oU0Z4jPmTPnAd/3O0Ms3QtAVi/cXZXL5Y4uFApXphG8UCj8ycxWBV1HctTdPbtixYpJJM8Ns5bk+bNnz87Uoe0zZ87sHTdu3GKSP0H1PINABgcHDw04rx6O46TSfbwjZsb29vZLW1pajjOzZW1tbf8e7ZkHAJJ5AIFvWQjoUQDpH9Lg45NppxDS0fRC3VKQPuIZAHfDcJm5kRTx/xfAOgBhbx+rR9DTpGUbJA3ARbU/IiIiO9Tf3/8mALsEWLKxpaXlg1GeON4okl8zs6PqfbyZ7b148eLpnZ2dqXfCxKV2sMibgqwh+a05c+YE/iIfl9mzZ/+xVCqtIjmj3jVmthDATVHELxaLh5J8ZYilfwPw0ShyiMNWB0N93vd9nT8Rjw2+73/297///S/TGp8xHMdx3hx0jZmtmj17dqDRJnHo6OhYViqVlpA8MuDSt6A6Nz0rNpC8MK3C7dZ837/CzOp+nQUAM3vpsmXLcln6LBC3fD7/RgA7h1j6qyz8nIdSG2XQWSwWbwfw/iBrzewAMljdt1KpxD2asyEzZsx4BMCHt/7/balQHwogyBXxMG5I4jTg4dRm3x6bZg4NmIh4C5bxMUwF4AJ4Mz1cgXF4g01H6DkjZjZA8hYAJ0SW4wvtSfLFWZjZ3MR2B9AHYGnaiUjkNLdu5PsBqmNPJJxfAcilnUSzIWmlUun0IGvM7Gu1D7iZUSgUej3PuwvAK+pdUyvMjdgCbu1gkTH1Pt7MHhg3bty3YkwplNqcvrq7vc3syNrt4Q1/BzKzN4Rcd357e3vds0jTUCgU7oc+L8aCpFculz84b968B9POZSh33nnn3pVKZU7Qwovv+19Iu7awxcDAwGdbW1sPD9gdf0CxWJxVKBR6Y0ssAMdxzsxKR6aZ3QTg4oDLxhx88MFTEHDUTbMiaT09PacF/b0h+XSlUvlsTGlFplAo3ITgFz/3ChFqTYg1qdpSwI27+xbIwPgEOOoEzIBTsAlPA3hHg/vcjHgLuAAwC8D1MccYsczsSVRHJ4hIkzGzHgA9aefRrEhmqaumaXieN9/MptT7eDN7Yu3atanP9NyOKxCggOs4zhEAvhlfOulyHOf1QR5P8mtZOFRkW2b2e1QLC+PreTzJF5VKpYMA3NtI3FWrVrWVy+UTgn5ZN7Or29vbVzQSW5pWBcCXXNf9TlYKnUMpl8un4PljHXfIzFa4rnt7TCkFNm/evHs8z/sDgNcGWWdmpwLIRAG3Uqk8k3YOW7iu+3ipVHqA5P5B1pXL5f0xSgq4xWLxSMdx9gu6zsw+N3fu3BHZiENyQtA1uVxubBy5xGnLi2WYmTNB3ZpAjO1iCXMBBD2VTuJAvJUlHNDgLsVIchleEhc2REREBIDjOIG6byuVyg8WLFiwKa58GtHS0vLHII8nObs20mzE6e7uLgD1f+4zswfvv//+a2JMKTTXdTeSvCPIGpIdjcYdGBg4PuD8YKA6Q/DrjcaWpvS0mZ3luu63s1y8rTkxxJqfR55Fg8rlcpiLiUtG6ut+BP4v6IJKpbJHHIlkUdCLojUP33///b+JPJnsaA26oFwu7xZHInHaUsB9WcxxnjCzx2KOMTyiM9X4srUcfIQ9QXeLVQAGo0hmGAfFvL+IiIgA6OvrawXwqgBLNrW0tGT2Lo8ZM2Y8YmYPBFjSWiqVGr24nUmO47w64JJfZnmOoeM4gZpSzKzhRhkzC9OEcnN7e/vfGo0tzcfMvtHe3p5q81Q9enp6pgCYGmQNyadnz579h5hSCm3u3LkrUJ03HcSkUqmkc1eGYGaBZ5Oa2e5x5JI1tc9Lgeehk/xBlt9bIxC4s9jMXh5HInFKqoBbinn/YdHDHAAL08xBXuCljSw2s00IcWUuoANj3l9EREQAbNq0aU7ADsObZ82a9VxsCUXA9/27gjzezOL+PJ4KknUX5s3MN7OsdwgF+rmiwTsdu7q6xgKYH2LppY3ElebFoLM2UlKpVMIcyneTmZUjTyYCvu8HHr3n+/4RceTS7Hzf/0fQNSR3jSOXrNmwYcM8BD+/atMzzzyTyYPLIhTmM2GQxoFMyJMcB2C/mOPcGfP+wzNchKZ4GxtFnFC/YNsqojqnNi7TYtxbhkByCqozA2cAmA5gN1RP15xU+1P3ASghPQfglNr8z1SRXInsPgf/ambz0k5C4kPyywACnwqdoDeb2e/STkKiQ3JBkMeb2c1x5RIVM/sLAszr933/4BjTScUdd9yxn5nV3WHn+/6qQqHwrzhzatRTTz117+TJkwnA6lxyUCMHme20006H+b4fdE7fGgC3hYknkhTHcQ4PUWvO7Gt/Lpe7keS7A645AsCXYkqpaeVyuScrlWDNomYW9/fETHAc5+gQy/64cOHCDZEnkyEknzOr9225yszcUqk0t5lmxecBvAQBB4eHkFoHLktoBxH01i2Jm48/R7CLB+BtEeyzPbuR3NXMMjPUfSQiOR3AqQDOQPoFy10A/JnkqWaW9u1Zk2r5ZNGktBOQ2I1Hdp9/QIg5V5J5gTqxSGb+9mAAgTqIHMcJc4JypuXz+SODPN7MMv9zXbhw4QbP855G9SJzPcbfcccduwAI9XnS9/0w3bc3uK4b96gxkUYFnQ9deeaZZ5bHkkkEZs+efXepVHoGQN2doCRf7nneeNd1N8aYWtPxff/JoGtGSwEXwGFBF9QO4BzRcrncat/3wyy9eMWKFa9rlsPdHAD7JBBnVQIxhkZ8EvVfIZdkPIgHcEsE+9wdwR478pIEYow6JPMkzyR5H6qjMC5C+sXbLSYA+B3JM9JORERkNOjr65sQpEsTwMOu6z4VW0LReTzg418cSxYpMrMZQR6fy+VSHbsWwD+DPHjMmDEvaiDWK4IuIKnuW8k0z/P2JBnoQjHJv2a5i7DWZR/0zuNcPp/XuSvbIBn4TgySI76Ae8MNN7QF/LwEABw/fnygwzeb0ZgxY+4CsDnoOpIH5nK5S5YvX94UIzgcAFNijjEI4MGYYwyJHmYDeG0asWUYxKdtKaIYoP1gBHvsyN4JxBhVSJ4G4C8AfobsFG231QrgFyQ/mHYiIiIj3caNG19GMsjdYPfElkyEWltbA42LItlIkS+TzGx6kMcPDg7eG1cuEXs2yINJhirOkzSEOKtk8+bNxTDxRBIUeGSMmfXGkUiUHMcJPIatUqmMyPnnjXBddw2CH1g+4pv2dt111+kBPy8BwH2HHHLI07EklCHTp08fQMjGUTOb1draeqPneWEODE2UA2DfmGM8ZmZpnXan7tvs+TsMl0S01xMANkW01/Yk0aE+KpCcRPLnAC5Ddgu3WzMAXyL59RBvlCIiUr9DgzzYcZyH40okSgMDA/1BHm9mk+PKJQ2rV68e4/t+kPf7zYVC4YnYEopWoJ8tyVA/W8/z9kf1zqAgsR49/PDDHwsTTyQpJAMXLR3HyfwFHt/3/xpiWUMHHY5ggV5nRwPHcQJdFK1J/WyXpJjZTQ0s3x3ADzzPu6pYLB67bNmyXFR5RSmP+G/XCnyCYBRq3beL0ogtwyA+ZYXAV9OGZGYk+TCAA6PYbzvUgRsBkjMB/BbxH5gYh/egOg/5zWY2kHYyIiIjjeM4hwQ5yMb3fdfzvM/FmFIkzGxMkL8XyaAHVWXac889N83M8vU+3szKpVLps57nxZlWVALd8hz2Z+v7/rRcLvB3yNVhYokkyXGc/YIeYFYulx+KKZ3I5HK5B4IevuX7/ktjSqfZBb4dfqQjGbgJqjaycFRwHGdZpVL5AIBxDWwzy8x+OHXq1H95nne17/vXb9iwoXfBggXlqPJsRB5A3Ff703mhJTph6r7NmNVYj19GvOdDiLeAu3uMe48KJF8B4BZk+0CkHTkDwB4kTzazdWknIyIykvi+v0/Ak4Nn1f5kWojT1XNdXV35rHxJaJTjOHsHLGC3ofp+O+KEPVwnn8/vFeJ5NGq+rEtTC9xE5jjOA3EkEqXW1taH+vv7KwCCXHkZcfPPo0Byc8DPBqNB4MNOHccZNRf1Zs2a9Zzneb9FNJ8ldgfwFsdx3jJx4sT1nufdYWYrBwcH716zZs3dac3jziPAKYkhJd6ByyJmwbA46biyQ522AFF/KYn7AkEzFx1TR3Iiqp23I+Hf8RgAfyK5yMwCHV4iIiLbZ2b68lqz6667jgEi/6yUlsBfNEewUB24YWbnksx8l6IIwhUtgx4Mmbjp06cPeJ73LIDd6l3jOM6Im38eBTNTB+42zOzFQS/qVSqVB+PJJptaWlq+VS6XT6hdFI7KBADHkjw2n89j8uTJlVKp9HeSdzmOs6pcLt/V1tb2l9oc3ljlEX9h5dGY938hB52gum8z5i9ox2Ux7Bv382vnmPcf6S4AEPSkzCybDeB2kq82s1FzNVNEJGYq4NasXbu2FUBmT1kPYiQeyhZWkFES26wL3IHrOM6TYWKJJCnoxQmS6wqFQiRj+BLwNAIUcEm29fX1TZg+ffr6GHNqRhpdtw2Sgcc7btiw4V9x5JJVM2bMeKRYLH7OzD4dY5gcyQMBHOj7/imO42Djxo1lz/PuAXCX4zh3AbhrzZo190V9V1USBdxEbzdmN2aCWJJkTKmD4ZNm8GPYeWMMe25NBdyQSI4H8Pa084jBVFSLuIvMTKc8i4g0YMWKFZMAjE87D4mFCvM1FvI+YN/3dw+x9KkwsUSSQjJfKpUmBVljZs/ElU/USD4T9Pd27dq1uwFQAXcrJKkRCv/R19fX2t/fH+j3BsD6BQsWxH3oe+a4rvuLUqn0GgCHJRWzdqH25QBe7vv+GwBg4sSJm4vF4l/M7C4zWz527NjbGr1Q4wCIsrV4KHEX2J7PwUWAum8zpg+zcUVMe8fdpTIx5v1HsvkAdko7iZjsDuAWkq9OOxERkWZWLpcnpJ2DxCbu7xgjnpkFHr0wODjYNIUuGZ3uuuuuMDOhm+YMCjNbG3RNS0vLiDrEUqK3bt26MM+RUfl+YGYEcA6Ae1NOZYyZzQJwFsnvbdy4cZXneb/2PO8dPT09ocZMOQBaos3xBRIr4LKIQwEcn1Q8qZPhEzF13wLxP79aY95/JIvzcLksmADgGpJvTTsREZFm1dLSEupwJ8m+MMVHeb4w/4a5XG7UdVtJc2ltbQ3z2tA0t9OHmd1aqVT0XijDGjduXODfGzMbte8HruuuyeVypwHoTjuXLWpdunMBfIzk7cVi8cee5x1Osu4GVAfxF6iS68A1fArVv5Nkx92Yjati3D/u51fcFzhGsnFpJ5CAPIDvkzwv7URERJqR7/sq8o1QJPWzbVzgf8Nyudw0hS4Znfr7+wMXK82saZ7XJAPnmsvl9HopwxocHAz8HAnzXBxJZs2a9dxOO+30Rt/3LwEQbKB8zEg6ZnY0gEs9z7uuu7u7UM+6JAq4/THvDwBgN6YDOCGJWBIAcUGM3bdA/CMU1IEb3mgZZWIAPk/yf0jqApKISAD5fF5fWkcu/WwbRDJwoWunnXYa1V/YJfsGBwcDP69JRnoQUMwC/w76vq8OXBlWLpcL8xwZ9e8H06ZN29zR0XGhmb0JwP1p5zMUM5vuOM7lnud9aeXKlZOHe2y+9idOybRt5/BJUN23GVOCi2tijhH3BQJ14Eq93gVgb5JnjObbVUREgmhpaUG5HPh7+SYAgW9RbQYTJkzIVIdIkszMJ9k0cy6DIBn2c0El6IJ169bp+5BkmpkFftEnmYsjlziYWZ4M9lKez+cHY0pHRohyuVwJeqibmen9oKa9vf1Wz/OOI3kKgLeZ2dS0c9qGATg1l8u9qlQq/b/29vbSUA/Ko/rBIM4ibuxXk9iN6SBOijuOBER8wiz2VvW4uzv0ZipBnATgepInmtmatJMREcm6SqUSprD1Vdd1vxt5MhIpM9scpIhB8p+u686LMaWmQ3JT0C/s+Xxed49Jpo0ZM2bz4GCwr1hm1jTPa9/3xwT9vfV9f0RelJTo5HK5Tb4f7MbmMHdxjGSu6w4C+FVnZ+evFy9efIyZvY1kXaMLEjSZ5K9KpdIH2tvbr932PzqIv0A1Pub9AQed0OzbbDEU4eL6BCLF/fwa9bcdSGBHAbiN5D5pJyIiknVhvrTqcKzmEKLrVD/XbYQ5DMlxnKYpdMno1N/fH+bCXTPdFRn4d9BxHN29J8MaHBwMU+Rvpt+bxHR2dvqu697Y3t5+SktLy2EALjazopnFOfoziDEkv9nd3f3Gbf9D0xdw2YOXATg5zhgSgo/zE+i+BeIv4OpqqIRxKKpF3IPTTkREJMs2b94c+EurDsdqGirgNijM6AXf9yfFkYtIVCZPnhzm+9WEyBOJieM4gb+fqgNXduS5554L83lJ7wc7MGPGjEdc1/1he3v7KbVu3A+RvMzM7ku5oGuO43yqt7f3qK3/nw7i7zBsi3V3HxdB3bdZc7sVcFNCsdSBK1k1BcDtJA9LOxERkaxqa2vbGGLZTpEnInEI+rMd19fXp+7RrZjZ+hBrdo8jF5GoTJs2bTOCN8kMe7BPlpAMnKvjOGvjyEVGjjVr1mwKWlA0s107OztVK6uT67pPua57eaFQOK+9vf3Yp5566lDf909B9cDyP5rZswmnlKtUKl/p6en59/u6AyDuwwJiK7DVum9PiWt/Ce3CBGONi3n/uA9Jk5FtVwA3klycdiIiIu/anVIAACAASURBVFk0c+bMNQjeqblXHLlItEg+EXCJrV27Vj/b53syxJrdIs9CJHpBXx8mkYz78PWoBCrgkixfffXVT8eVjIwMS5curQD4V8Bl+de85jW7xJHPaLBw4cINHR0dRdd1v1MoFM6+5pprZgN4FYD3AvghgJUANsScxmSSH9nyPxwAz8UcML4OyQo+AXXfZs1t5qIrwXgTY94/6assMvKMB3AVybelnYiISNaYGQE8FnDZvnHkItFyHCfozxUtLS2aH78VkoH/Dc1M/4bSDP4Z8PHW29u7RyyZRGjZsmU5BLyI4jjOk52dnVmZvSkZFuY9AYDeEyJSm537d9d1r3Jd92LXdZdee+21h6JW1PV9/xKSq6OOS/J1pVLpACCZAu6ecWzKEg6B4dQ49pYG+Lgg4YhxvyDpaqhEIQfguyQ7005ERCSDHg/4+H2aqBNr1CqXy4G/aJLcP45cmlUulwv6uwHf9w+II5eRKp/PW9o5jEZmFrQDF5VKJfOvDwcccMA+CHhwFMmgxWwZpcI8VxzH0XtCjLYu6nZ0dFxYKBSOAdBuZu8zs5sRzUjOHMmzgGQKuFNi2lfdt9lzk3XgzwnHfEnM+z8T8/4yehiAi0j+SIUHEZH/MLNHAy4Z093dPT2WZCQyjuME/bnCcZxZceTSrMrlcuACLskD48hlpOrv78+lncNoRPKREMumRp5IxMwscJHZzML8W8goZGZh7sqYFkcusn2u6z7V3t7+2/b29reUy+V2kp8M87Pbxokk8w6Cz9EI6v+3d+dxctRlGsCfp7pnSEISjhiRSwISrgBJprsnyRBWgrCCHIpHQBFQ1FVQZF3Xk8NBQEHBY1VAcGER5QjIkXAYggYMJJl01UwCxgAhQW7kzjnJTHe9+0d3NIQcU9V1dGee7+eTjx/D/Op9MplMT7/1q/c3IuoLWhdGwrT7tu4QF6ZQNe4duHHf4JD+53QAt5pZ3PObRUQagu/7jwdd4zhOLo4sEp3tt99+sZmVAi5riSVMg+rp6QnzKOY+ruvGfcjvVqOnp0cN3HQE/r5Psu5vTvi+HzijmS2KI4tsfcI8nm9mo+PIIn0zfvz45YVC4dqWlpZDSV6M8Dtyh3Z1dRUcAIHvjgcU/Q7cMtpReSRZ6gVxH3OYlULluHfg1nqnROrXOUzPCSR1QJ6ICAAzezToGpIT4sgi0ameNP9kkDVmNuLhhx/WQWZVEydOfBEBN9uQzJqZdjL3UXNzs57oTEGYpqWZ1f2NOzPLh1jztziyyNanqakpzM9LLa7rBhrrIdEjWcrlcleb2QkAloe5hu/7iTRwdzWzyL5grAsjAZwY1fUkIoYLEi9ptiOAwTGXeTbm64uIiPRrpVLprwCC7tQ87PHHH4/7IFOpXdA3m2xubj4mliSN669BF5iZbnD0UalU0qagFOTz+SUIuBON5L7Tp0/fNqZIkQhz86RcLmsHrvTJ6NGjnwCwNuCyAb7vj4kjjwRXKBT+SvJMABZ0LckDHcS/wzADYNfIrlbG96Ddt/XFMI15dKRQOYk5SM8lUENERKTfamtr6wbwVMBlzatWrToyjjwSHZILgq5xHEcN3Ld7LOgCx3E+FEeQemdmgd8QZ7PZbeLIIptHsmRmCwMuy+644451e3Oio6NjH5LvDrKG5Ivjx48PfKCb9E8kSyQDN/yz2ewH48gj4eRyuVkAHgi6zsze6yCZHYYHRnER87A3tPu23hgsldm3QDJz0p5JoIaIiEi/ZmZhDkE9LfIgEinHcR5E8F0mY13XPSiGOA0pk8nMCbHsfR0dHXU/LzQGvUEXkKzrHZ1bM5Jhxu/9e+RBIpLJZI4Kusb3/TRGEEoDM7PArwm+7x9rZowjj4Tj+/5vQyzbKYvKjocy4t3VmgdwdwTXOR+ATm+vJ4Y72IpiStXjfhRgOUkdYrb1GmBmO6QdYjP0pIHIpm1b5/9+JaBMJnO/7/tfDLLGzMYUi8XWQqEwL65cUpuWlpYXi8XiIpIHBFz6JQBfjiNToxkzZsw8z/OWAdguyLpMJjMZwEXxpKpbgRu45XI57nFssgm+7//FcZyvBlx2hJllSQYduxM7MzuKDNYjMzM1cCUQx3Ee8H3/jIDLdu7s7JwIpHJmkWxEqVQqNjc39wBoDrBskENyLeJ/TDzwMO8N2TzsDsOnoggjkfHhJD/7dj1xD7IPfDqqNJTzALxRx79GxvdHF2l41yH9f6Ob+6WbzQE99dRTXWb2etB1JP8zjjwSqftDrDm6WCzuG3mSBlR91PzBEEs/2d/mRJtZ0NmQcBxHDdyUFAqFLgArg6whOayzszPwTte4zZs3bwzJUUHWkPRLpdIjcWWSrdPUqVM7AbwWdJ2ZfT6GOBJSW1tbN8mg42yz607dDHRCbAitNV/BwWRoR1q9+QNzgQ+niISZZRDRaI7N0EB5ERGRBEyePLlM8o8hlh7iuq5mpta3e0OsyTiO83098llhZjNCLBu8cuXKT0cepo45jvNmiGXvijyI9El1nuf0oOvM7NQ48tQik8kEzmRms9va2t6II49svdrb232Sfw6x9P3z588PdJNB4uX7ftDXrNXrGrhx7zQcbma713iNuJt1EowPpDb7FgD2BzAo5hpq4IqIiCSkt7f3hpBLz3NdN9Dj5ZKcQqHwBBD8sFszG+953sdjiNRwVq1aNYNkmObkWQsWLAh0qFIjM7NXQyzbI/Ig0meO49wWYtm4YrF4SORhQnJd971mdnzQdZlMZkoceWTr5/v+rSGWsbe3VzdG6wjJoGcErFzXwA18QmwIhZpWGwZGlEOicQvzwU/FjdC/JVDjbwnUEBEREQATJkxYRHJuiKU7k/xJo74pefjhh3eZO3fu+LRzxOz6kOu+36iHcZkZ582bd9zMmTNrHqkyadKkNSHfsG/b09PznVrrx23mzJkDXNf9tud5e9dynXK5HLiBa2Y1j/qT8O666665ZvZ80HWO43yzXr7nm9l3ATQFXLPirbfeCrz7WAQACoXCPJKBN5uRzM+fPz/wzYakLViwYDfXdS8JssZ13V91dnYGnbefKpI7Blzy3LoGblfUYTZiUk2riaUR5ZDalQF8P+UMRyZQI5XxECIiIv0Vyf8Ls87Mjujs7Dw74jixmzdv3r8NGDDgnkwm89G0s8RpxYoV00PMegOAQZlM5qpZs2Y11KGFXV1d23ued63jOL9ERDOxSd5A0g+x7qOu634kigxx6OrqGjl06NA7AZxhZsNquda4ceNeN7MVQdaQbJk7d+7QWupKeNXHwW8Ous7Mxriue0ocmYLwPO9wkoFn8pK8fdKkSWviyCT9Rqinlkql0sXz5s2r9en42BSLxQ/19vbeC+CEgEsn+b4/1XXdM6dMmVL3o1dd1x0UdEoBycXrGrgLAfREH+ttaptPRtwXUQ6pFXEj8+kd8GVmWdR6Q2DLXib5TMw1REREZD1Tp06dDoR7wsfMvuZ53hcijhQL13W38zzvokwmcz2AoDswGs6kSZNKAH4Wcvn7BgwY8PtGGZPhuu4x5XL5jwAOj/K6+Xz+Wd/3wxwIBwAXu667X5R5amVm9DzvM+Vy+R4z2z+q65JcHHDJNtls9tio6ktwgwcP/j8Ay4OuI/mdYrG4V/SJ+qajo2OYmf0IQNCdwD1r1qy5Ko5M0n+Y2R0hD38d4jjOFdOnT982jlxhLViwYFvP835C8koAYV/vmwB8a88995xSb695GyqXy4ci+BlfCxwAINmDShM3TnvW8uLMHGbB8JcoA0koJaS/+3Y8wv+j7qvAs9pERESkNu3t7X6pVLoo7HozO9d13bPr5dHaDZlZtrOz8yQzm2lmp5iZs+VVW4dp06bdipDnC5AcZWY3ua67c8SxIjNnzpz9Pc+7AcAVAGLJSfJHqPwsHtRgAL+bM2fOiGgThdPZ2XlAZ2fnzWZ2AYBtory2mYU5nPsLjbBja2u13377rQBwXYilgxzHua6jo6OmndthLF68eJtMJnMVgOFB15KcMnHixDBPJIj8Uz6fX43wN0YPHjZs2DULFy5sjjJTGOvGDfX09Mwws49FcU2SeQD3FIvF9np9wiKbzQY9ZNSy2eyD6//QODvKQJtwdE2rDZ8G8HI0USQUww3M4amUUyQxPqGYQA0RERHZwPjx4+cCqGU24H91dnb+YsGCBXWzu8TMsp7nneh53oO+719KMvGGQ9ra29v9TCYTehNAtYk71fO8XJS5ajVnzpz9i8XiVU1NTfeZWaxnNOTz+SVhHjevGt7U1HRLsVhM7WBo13XfVSwWLzWze8wsrrnP80Ks2WvEiBGfjDyJBPG/AJYFXWRmIxzHuTrJ7/eu6zYtW7bsFwBaQyxfm8lkrog6k/RP+Xz+RiD0qNFDVq9efX1XV9f2UWYKwnXdgzo7O291HOeXJHeN+PJZkp/NZDIPFovFz82ePbtuztQqFotHBP15wczmjx49+pX1G7gPR5xrY2pq4LIVzyGDCQA6I8ojwfTCx4Vph0CtNwL6RjtwRURE0vM9km+GXWxmx/X09MzwPO/QKEMFNWvWrB1c1z3D87xZ1Udt63buXBLGjh0728xuCbue5LvN7FbXdc+dOXPmgCizBdHe3u50dXUdViwWr29qarqP5NEI/hh1KCR/hhCNrqr3kLzN87ygswVrsnDhwmbXdb8E4CGSJ8W583zt2rVzwqwj+e2Ojo49o84jfZPP55eZ2Q/DrCWZ7+3tvX3u3Lk7RZ1rQ9XHzn8D4INh1pvZ/4wZM+aFaFNJf0WyZGY/qGF9W7lcvsPzvMjG2PTFggUL3u267mUkp5pZIc5aJIeRPL+5uflhz/O+4LruoDjrbUlXV9dIkpeHWHoD8Pah+kk0cP/NzLYjGfaHDnAs/m6GAlycAODfQYwA0ViPnxmGAxiddozADNdxHJ5ONYLZ3gDiPi22B0CoH/5ERESkdvl8/iXXdb8J4Jqw1yC5q5nd4LruA729vZdPmDAh1OP7QZkZu7q6cuVyeTLJDwNIrdFYj0i2o/Kz3PtCXiID4AtDhgw5prOz8+fLli27rTpjN3adnZ3Dy+Xy8Y7jnFIul/ckk5/U0dLS8mqxWDyX5C9CXmKgmf3M87xju7u7z4vzUe6Ojo5hmUzmU2vWrDkFQOzNNQCYOHHii67rPg4g0PxDkkMymcz18+bNO7m1tfW5qPJMmTIlM2LEiOGtra16inQL8vn8zZ7nfRThdrbul81m73Jd97/z+XwsfQ3XdQ9C5ZH1vUNe4vF8Pq/ZtxKpQqEww/O8KWY2OeQl9vJ9/27Xda/o6em5oq2trTvSgOspFov7kvxsb2/vCQAGmFlcpTbmXWZ2LoCzPM/7g5n9Lp/PL0kygOd5h/q+/wsAgXY9m9krgwYNmgas18Al+byZPQ0gzjuPzQAmo4YfxgGAhA/gD9VfDceKOB3E/6adI6AeZBHqrmjEPo34dzjMJbkq5hoiIiKyGfl8/n7XdX8L4NQaLkMARzY3N3+gWCz+xXGcm1paWh4gGWnDrzrD7eBMJnOc53nHANgljeZeI8jn86s7Ozu/4vv+Xai8NwhrF9/3Lx08ePBZnZ2dN5dKpVvjaJJ1dHQMy2azR/m+f5zv+60kMwm/6XyHQqEw1XXdDwD4SNhrmNkRAwYM+DfP824xs6vz+fyzUWRbuHBhc09PT1u5XD4WwPEAtknh83UXAjZwq/ZwHOcu13XPy+fz94Qtvu5zUCqVjiZ5pJm9DOBDYa/XX5A0z/O+Y2Z3AwjzuPPOAH5XLBZvMbOfRvX9oKura/tyuXyGmX2eZHbLK97JzEpm9q2oX3tEACCbzbb39vZOQMinfKpf119tbm7+lOd5V2277bY3V2dT12z27Nk7NjU1HU7yBACHIKGnVTZjOzM7HcBnXdftMLM7Sc7I5/OvxVWwo6NjH8dxzjCzExDuz3/JqFGjeoC378AFgBkA/qPWgFtwGmps4DY8B7sj3Z/7gjNcw7H4e9oxACQxn2pmAjX6g0b7KhcRkTqTy+Uu8DzvvQAOq+U6ZuaQPMzMDvM8b5nrurN8338ok8l0Llmy5OnJkyeXg1xv5syZA4YMGTLSzAqO44zv7OxszWQyO9SSsT9paWn5W2dn51d93/8Vgp/C/DYkd/N9/78zmcx/ua67gOSDZjZn4MCBC0eNGrUyyLWqu6d39n1/LIBxqBycu4+Zsd4a8qVS6bxsNnsQwu9kBoBmMzsFwKeLxaLnOM7dZjbn7rvvfrK9vd3vywXMLNvV1bWPmR1oZpO6u7vfDyDV+dOO49zp+/7X8c73un0xDMAVnuctMrOpvu8XHcdZWD0waKOmT5++7Q477HAAyYMcx2lZvXr1YSSHrPc1o923fZTL5Z6qNnHDHs5EkieR/Ijrun/wfX9Ka2vr/DAX8jxvb9/3J5fL5U8CGFrL9wDHcS7K5XKhcohsyejRo1cVi8WzqjPSa3nq511mdu7KlSu/4brunzKZzB97e3s7gtwMWbhw4eDVq1cf4DjOGAAfqI5IqMdDIglgPMnxJH9QLBY7Sc4gWRwwYMBj6xqmYS1atGjYqlWrDjWzE0i+HyEb1ySLuVzu9nX/f8MXtemIv4F7iJntR/LxmOvUL2u4+WdrUMYlaYcws1YA+yRQ6s8J1OgPAr1pEhGRRISeK5sGkqXZs2d/qbm5+UYALRFddjsAxzqOc6yZYa+99lrted5i3/dfAvBSJpN53ff9kpmtNLMBjuMMAjDIzHaoHrKxFyo7vUgSae/GbFQtLS33FYvFc0j+EBHsyKnOVR1rZmMBfK27u9s8z3sGwDNm9g8A/wCwysx6MplMr+/72wIYikqzcTjJPT3P2xMNMvJi/Pjxy+fPn39KuVy+w8xqHU9AknkzywPAscceu+yYY45ZDOBZki8DWE6yu1wuN6Hy72c7x3G2A/A+z/P2BdBUY/1ItbS0vOh53l21nGhuZvsD2N9xKpP6PM9708xeQWXU2ipUmt/bk9yO5A7r5vqaGeqt2d9ocrncHa7rjgHwmRouMwDAyY7jnOy67nNmNttxHBfAEpLPLlu27M31R6/Mnj17x+bm5l3NbC+SLSTbzGyfiP4u78jlctdFcSGRTSkUCl3FYvErJH+N2hum2wD4ULlc/pDjOHBd90VUDkt7BsDrAFb7vr/CcZwhqL4mVA9n3be7u3sPkmykn42qN/nzAPJmhu7u7rWe5z1qZosAPOM4ztO9vb3Pkex2HGd5Lpdb9eijj27T3Nw8YNWqVds6jjO4t7d392w2u4eZ7QngoNWrV48C4NT4PeStTCZzNsl/fjI3bOA+AKAX8b8InwLgnJhr1LPd0g4Q0K85Hs+nHQKV8QlxewuafxuV/nuTRkSkfhXTDhBUW1tbd1dX12fL5fLvABwUQ4lBZjaa5GgA8P3KxkOSb2vEqCkTvUKhcJPneYPN7BxE/1glzWwEgBFv+03yn3/H62ukN5vrjBkz5oU5c+ac1tTUNAWVZnRUtlv3Znbdb5gZ1jUzG0FTU9Mv165d++Gwj7xvyMx2APC2Xfbrvic04tdOvcvlchd6njcCNT59UbU7yRPN7ESg8vc1ZMgQuK7bC6CM9W7aRP13amZub2/vdyK5mMgWFAqFGVHeGF3PLtVfE9f9xoavB1vZ98FtqjuHC0Dl58JM5l89cc/zAAC9vb1Y/7+v/zmI4PNRAvCfGx56+LbPOsnlSKZ5daqZ1eM26qQ00g7cNcjix2mHMLMhqG0GXl/dQ7I3gTr9wRwAr6YdQkRE/mk1gClphwhj7Nixb6FyjsL9aWeRaOVyuWvM7EwAa9LO0ogmTJiwyMw+DuCltLPUk4MPPnip4zi/TjuHhEOyNHDgwC8g3tF2TYh3x33noEGDTovzUCiRDRUKhZvM7OtmpnnLjctIfjefz7/j+9/GbqPekUCg3QAcm0CdetVIO3B/xTF4YcsfFrvPobI9P253JVCjXyDZA+DnaecQEZF/+gHJhr2xls/nVy9duvRLJK9NO4tEq1Ao3Ov7/qcBvJF2lkZUKBSeaGpq+jiARE/UrndDhw79OfREWMMaNWpUT09PzxkAHkk7SwidAwcOPCXoHG6RKBQKhT84jvMZVMa9SAOpNt6/kcvlbtnYf99YA/c2JHP40HcTqFF3zMV2iPYRpzitQqkudt9mAHwlgVI9qMyBluhcDmBB2iFERAT3Abg07RC1mjx5cjmXy12QyWROI/mPtPNIdFpbW4sAjiSpn8VCGD169POZTOajZnZf2lnqxciRI9dms9nTAcR2urjEq62trXvFihWnArgy7Sx9RXJqT0/Pp9S8lTTlcrlZJD9mZovTziJ9tiqbzX4un8/fuqkPeEcDl+TzSGY+WquZvT+BOvXFb6jdt7/keNTDm6PjUdsJu331QHWMiESE5BoAJwB1MUNZRKS/uh/AJ0huNY/TjR079sG1a9ceBeCetLPUqAfAPU1NTTelHaQe5PP513K53H+Q/IaZrUg7Ty1IPun7/kUPPfRQTSdZBzF27Ni3CoXCl3zf/wYaaOcVyb+TbO/p6Xk06muPGTPmBZKfhsZ6NaxJkyaV8vn8Jb7vn4PKeT31qgzgh7lc7iyNTZB6kMvlFq1cufJYANcjmU2akTCzOQDOCrLGcZwr0djf5z3HcY4eO3bsg5v7oE1Not9kxzdi30qoTv3INMz825Vowk/SDlH1tYTq/D6hOv0KyacBvB/A/LSziIj0Mz6AywAcR7Jhmjl91dbW9kY+nz8TlRuFHWnnCaK6I+aScrk8Pp/PnzlmzJiutDPVk1wuNyWbzU5EZdddI83GXWlmtwM4OZfLHdna2npNe3v7O09Mi1lra+sUx3GOAHAnycTrB/CImX1u2rRpk3K53HVxNb1yudwix3E+RvLJOK4vyWhtbf2dmR1jZvX4/fJxM/tYPp+/Ku0gIuubNGnSmnw+fz6AE0nW85OxawFMIXlUoVA4KZ/PBzrzoKWl5RcDBw5sI/k1AJHfDIxL9efzS5YuXfqJlpaWZ7b08Zs6lfNGAJcAiPugsaPNrIVkZ8x16kljNHCJn3M0Xkk7RnWX9qEJlFoFYGoCdfolkkvNrBXAOQDOw6ZvHomISDReBnA6ya3+cep8Pt8JYLLruv9uZmeSHJt2po0xs1dI3mdmUwqFwl/TzlPvqgfXXdLZ2flb3/fPAvARAINSjvUOZlZyHGc2gNuXL19+36RJk+qi4dzS0vIigLNd1/0NyW+a2aGI9lTysFaZ2TSS1+Xz+cTm07a0tDwzc+bM44YMGfJdkqeYmX4WbUCFQuGJ9vb2jx533HGnmdnXkMwZKZuzysx+lc/nf701PeUiW598Pt9hZh92Xfe4apNzr7QzAQDJF0ne2Nvbe+O4ceNer+Vao0aN6gFwO4DbPc/LATjZzI5EfY4wLZnZbU1NTZePHj26z323jTZwSb5oZjMAHBVZvE37NiqnCvcP1hAjFJZhbfq7b82MqNxISMLtJDWnKEYkewG0m9lDAC4GMCHlSCIiW6MVAH4G4HKSy9IOk6Tqbo37Pc/b28w+DuBTSP/N/bNm9iczu+fee+/10tiN2eiqjcjvLFy48OLu7u7jzewUkgekHKvbzGYDuKdcLs8oFAp1O4Irn88/BuCUYrG4F8nJAD4JYPuEY6w1s4cB3PPGG2/88YMf/GAqTwRUm+vne553E8nv9MtxfluB9vZ2v729/brp06dP2XHHHU8EcAbJdyccY5WZTSH5y0KhoBnL0hBIGoCpZjbN87xDUPk56YPY9MbOuLxlZn8m+YeWlpZHqrkilcvlPADelClTMiNGjGgheQyA40kOi7pWENXxULc1NTVdM2bMmBeCrt/cX9QNSKaB+3Ezm0jy4QRqpc+we13c+94cw8/YVhenAH8UwPiEat2QUJ1+j+RMAG1mdhSAcwEcknIkEZGtwesAfgPgxyRr2sHQ6HK53FMALlm8ePFP33rrrQkkDwdwGIA9EijfbWbzHcf5c6lUmjFu3LinE6i5USS7APT5zYHjOEtjjFOz6oFANwK40fO8vQFM8n3/cACtJJN487kEwCO+789wHGdOoVCo51mc71AoFJYCuMR13f8heajv+x8AMCnGxtdqAHNJThswYMD99XSgUy6XWwTg1I6Ojn1InuI4ztEAhkdYwszsaZKe4zhuNpudF/ZCK1euLAMI+j75pbD1Gkn1RsC1ruveDOAYVHbpT0B8TxGbmXkA7iqXy3eOHz++Xm/cvIaAXzMk625mb/U1LEhPItYd/Wa2mmSgf8uO49RDT+Udqg3ThwE8PHfu3J2y2ewHAByOyvvyuJ50edXM/uw4zrQlS5bMnjx5cjmmOm9TrVMEUDSzi1zXnUjyKADjkNAuZDNbQfJPAO7ZfvvtHxo5cuTasNfaZCvRzAaicvDQjmEvHkAHgAlxdN7rjXmYAcMRaefYjLfQjL14MN5MM4SZZQA8BmD/BMotAbBPnc8I22qZ2QgAH6/+yiP+0S1Su7+RHJV2iM0xs8cB7Jt2js3YiWTqY2o2xcyuBPCltHPIFi1D5RCvGwHcX33SQTZhwYIFu5XL5YPM7EAzO5DkPmb2boTfebKS5FMAnjSzJ8zMy+fzj+kx2mRNnz5922HDhh1oZgcCONBxnP3NbA+EfxNaJvksgCcBPFUqlRYAcGt9tLMemRld190HwEEkDzazg0m+F0DQHUolAM+g0kBZ5Pv+3EKh0NUo/xba29udo48++qBsNjsOwEG+7+9Pclds+WvodVSapS8B+DvJxeVy+Yk333xzcVq7jPu7uXPn7uQ4zpEkW0m2Ati5xku+bmZFAB1mNqO1tfW5CGKK1KXFixdvs3z58gMBHOz7/sEkDyC5u5ltG/BS3QAWA3jccZzHSM4ZO3bs4ugT16azs3M4gLzv+6MB7A1gHwC7obZ+RC8q/aWnzKyT5LylS5f+LaqG9Wb3gprZZQC+HkWhPjiZ5I0J1UqNuaj3psJ5zOOitEOYOFvhAgAAEWRJREFU2RcAXJ1QuW+S/HFCtWQzzGwQgAMBjK7+77tQmVkzFEDQFw6Jz9MkP5F2iM0xszsB7Jl2js04jGSqN8o2pwEauEuBdG80JmwNKn/eNwH8A0AXABfA4v5w8ztO1UfrhjuOswvJ4dUNDIPMbADJbQCA5BozW1v99SrJf/i+/9rW2NDbmsydO3doJpPZOZvN7lwul7c1s6GO4zhmNhQASPpmtsLMjOTr2Wz21ZUrV/5jhx12eK06R6/fmjlz5oBhw4bt0tvb++7q56vJcZwhvu+vmxu7rFwulzKZzKsAXsrlcq82SrM2iLlz5w7NZrPbo9LIbap+rSxvampaM2jQoGW17KKSZMyfP3/Xnp6evUm+l+QeJN9jZoMBNONfczFXkVxrZitR2SX4TCaTeaZcLj+dz+ef1uus9Heu627X29u7S1NT07Dqa0KW5GAA8H2/5DjOquou7pfM7NV8Pt+wY0UWLlzY3N3d/R6Sw0ul0rtIDnccZ0j1P68/lms1Ks3a1Y7jvFIqlV7LZrOvLFu27IVJkybF9nq4pQbu+1C5+5zEkPfnAexLcnUCtVJjLlYAGJx2jk14HSXsxfFI9XEQM9sRwCIAScwyWgtgd5KvJlBLRKQhNEADdzLJW9MOISIiIiIikoTNNmZJLgFwf0JZdgPw3wnVSoU9ih1Qv81bALgs7eZt1eVIpnkLALeoeSsiIiIiIiIiIvWqLztrfxp7in85x8wOSrBesnqxe9oRNuM1rMGv0g5RPQ32tARLJvn1LSIiIiIiIiIiEsgWG7gk7wfQmUAWoDKL5rdm1pRQvWRZXTdwL+VErEgzgJltA+BKbGG0R4TuJTk/oVoiIiIiIiIiIiKB9XW2bZIHPI0B8N0E6yXHsFvaETbhZQBXpB0CwPkA9k+w3mUJ1hIREREREREREQmsrw3cWwEsiTPIBs4xszEJ1kuGU6c7cIlLmUeqh8eZ2eEAvp1gyXkkZyZYT0REREREREREJLA+NXBJlgFcGHOW9TWhMkphYII141efIxRewlr8Os0AZjYcwA3o+w2FKJyfYC0REREREREREZFQgjTMfgfg8biCbMRBAK5JsF4S6m+EguEHbEN3auXNCOBaALskWPYRktMTrCciIiIiIiIiIhJKnxu41V24348xy8acbGZnJVwzTvW2A/c5bJ96k/ybAI5NuOa5CdcTEREREREREREJJegj67cA6IojyGZcbmYTE64Zl13TDvA2hos5EmtTK292FICLEi77R5IPJlxTREREREREREQklEANXJI+gP+KKcumNAG4zczqq/kZkLl4F4BBaedYzzMYhOvSKm5mBwC4CUA2wbJlVHb8ioiIiIiIiIiINITAh0ZVdy/eGX2UzdoJwF1mNjThutGptwPMDBdyFHpSKW32HgD3Atg+4dJXknws4ZoiIiIiIiIiIiKhBW7gVn0DSLz5lwNwp5kNSLhuNJy6OsBsCYjfplHYzAYCuAPAHgmXfhPABQnXFBERERERERERqUmoBi7JpwD8KOIsfTEJwC1mluRj99Gorx24FzKP3qSLmlkzgFsBjE+6NoDzSb6WQl0REREREREREZHQwu7ABSqHTz0RVZAAjgdwrZkxhdq1qJcG7mKswO+TLmpmTQCmADgm6doAigCuTKGuiIiIiIiIiIhITUI3cEmuBfCVCLMEcQqAnzZUE9fqZIQCcQEnoZRkyfWatx9Osm5VCcAXSZZTqC0iIiIiIiIiIlKTWnbgguQDAP4vmiiBnQ3gN2aWSal+ME5d7MB9Ektwc5IFq38/vwXwkSTrrudHJLtSqi0iIiIiIiIiIlKTmhq4Vf8J4NkIrhPG6QBub4iDzephBi5xPicjsZ2oZrYtgDsBnJRUzQ0sBHBhSrVFRERERERERERqVnMDl+QyVBqpVnucUI4HcK+ZDUmp/haZgQB2TTnGQrTg1qSKmdlOAB4EcGxSNTfQC+AzJNekVF9ERERERERERKRmUezABck/Id1DoiYBeMDMdkkxw6Y9iuEAtkk1A3E+CT+JUma2N4BZAPJJ1NuE80i6KdYXERERERERERGpWSQN3KqvA5gf4fWCagUw38wOSzHDxpVSH5/wGFpwZxKFzOxQAB0ARiZRbxNmAbgsxfoiIiIiIiIiIiKRiKyBW31UfTKAFVFdM4ThAGaY2bdSzPBOac+/NZwb9+5bM6OZnQ3gAQA7xllrC14F8EmSic36FRERERERERERiUuUO3BBcjGAs6K8ZghZAJeY2TVmlu7Ygn9Js4HrIY9pcRYws6EApgD4GYDmOGttgQ/gFJIvpJhBREREREREREQkMpE2cAGA5PUAror6uiF8HoBrZmPTDgJit9RqG84n4ztgzsxyALoAfDyuGgFcQHJ62iFERERERERERESiEnkDt+qrAB6K6dpBHAigw8wuMbOm1FKkNULB4CKP+2K5tFmzmX0PwGwAe8VRI6B7AFyUdggREREREREREZEoxdLAJdkL4CQA9fAoexOAbwH4i5ntk1KGdBq4xDlx7L41szEA5gBoR7ojE9ZZBOBkkrHO+RUREREREREREUlaXDtwQfJlAMcBWBlXjYDGA+gys2+nMBs3+REKxGzmcX+UlzSzgWZ2CQAXQEuU167B6wCOJ7ks7SAiIiIiIiIiIiJRi62BCwAkuwBMBlCKs04AgwD8EMBiMzvVzBh3QTM4AHaJu85GnBfVhcyMZnYSgIWo7GbORHXtGq0FcALJp9IOIiIiIiIiIiIiEodYG7gAQPI+AGfFXSeg3QFcD+DPZjY61koedkLyYwYeZg5/juJCZjYBwCwANwHYM4prRqQM4BSSs9IOIiIiIiIiIiIiEpfYG7gAQPIqVOal1pvDAHhmdr2Z7R9LhTQOMPNxbq2XMLNRZjYNlUPKDqk9VKQMwJkkb007iIiIiIiIiIiISJwSaeACAMkLAFyWVL0AMgBOBbDQzKaZ2bhIr+4kPP+WeICteCjscjM71MymAngMwLHRBYvUeSSvTjuEiIiIiIiIiIhI3BJr4FZ9E8C1CdfsK6LSsJxrZveb2QcimZGb/A7c7wddYGaOmR1nZo8A+Asqh8/FPh84pB+TvDjtECIiIiIiIiIiIklItIFL0gB8HsCVSdYN4UgADwB4xswuMbMRNVwruQYucR9zCDMT9h4AUwG0RZwoaj8g+c20Q4iIiIiIiIiIiCQllV2WZuag0sT9jzTqh1AGMAPAdQBuJ1nq60Ir4mYQJ8aW7O3GM4+OIAvMbCIQqumbtMtIfiPtECIi/YGZHQogntnw0XiA5NK0Q4iIiIiIiCQhtcfkq+MJfgHgy2llCGlHkm/29YPNwyOwBHa2GqaxgOMDLzN7EMD7ow8UqUtJfjvtECIiIiIiIiIiIklLegbuP5E0kl8B0EiNuZVBmrcAkpqBazBcGHiR2RGo7+ZtGcAZat6KiIiIiIiIiEh/lVoDdx2SlwI4HUCfxxKk6LkgH2xTkAGwc0xZ1ncnW1EMse78yJNEpwfAySSvSjuIiIiIiIiIiIhIWlJv4AIAyesATAawKu0sW/B8oI9+L3YGkI0nyj8ZHFwQeJHZUQAOjSFPFN4AcBTJW9IOIiIiIiIiIiIikqa6aOACAMk7ALQBeDbtLJsRLFsTdospx/puYwsWhFjXHnWQiDwFoI3kzLSDiIiIiIiIiIiIpK1uGrgAQPJRABOAUOMAkvBCoI+Of/6tD+KioIvM7BgA42LIU6s/AWgl+UTaQUREREREREREROpBXTVwAYDki6g82v8/aWfZiKC7g+Nu4N7CHB4Nse57kSepjaHy93104EPiREREREREREREtmJ118AFAJJrSZ4N4FQAq9POs55Ah5iBsY5QKIO4MOgiM/sIgEIMecJaDmAyybNJ9qYdRkREREREREREpJ7UZQN3HZI3oDIX9/G0s1TVzwgF4kbmsCjIEjMj6mv2rQugheRtaQcRERERERERERGpR3XdwAUAkgsAjEXlEXtLOU6wHbjxjVAow8fFIdZ9DMDoqMOE4KPy93kIySVphxEREREREREREalXdd/ABQCSa6ojFT4C4JWUYiwnuTzgmnhGKBDXs4BAB32ZmQPgvFjyBPMMgMOrIxN60g4jIiIiIiIiIiJSzxqigbsOyakA9gNwdQrlAx1gZjORBfCeGHL0htx9+wkAB0cdJgAfwBUADib5UIo5REREREREREREGkZDNXABgOSbJL8I4DgAzydYOtj82yHYBUAm8hSG61jA0kBLzDIAvhd5lr57CsARJL8cYheziIiIiIiIiIhIv9VwDdx1SN6Nym7cCwCsTaBkoB24MR1g1gsfl4RYdxKA/aMO0wfdqDSODyQ5M4X6IiIiIiIiIiIiDa1hG7gAQHIVyXZURgP8MeZy9XCA2TUch6eDLKjuvk1j9u3dAA4g+X2SSTTYRUREREREREREtjoN3cBdh+STJI8GcCSABTGVCTaugZEfYLYWJfwwxLpPA9g34iyb0wXgMJLHkfx7gnVFRERERERERES2OltFA3cdkg8AyAH4PKKfjxv0elHvwP01xwfLYGZNSG737eMATgOQ1yFlIiIiIiIiIiIi0diqGrgAQLJM8n8BvA/AFxF89MGmBJ2BG+UO3DXI4kch1p2KyuchTksBfAaVObe/JenHXE9ERERERERERKTf2OoauOuQ7CF5NYC9AZyBSqOxFi8E+mgn0h24V3BMsPrV3bfnRJhhQ4+isuN2X5LXkyzHWEtERERERERERKRf2mobuOtUG7lXARgJ4HgAD4S4zBskVwZaYZE1cFehFGr37ekA9owowzoG4E8AjgYwprrjthRxDREREREREREREana6hu465D0SU4jeSSAAoBrAazq4/Jgu18XohnAuwNG3JRfcjz+Eai+WTOAb0dUHwCWA7gawMEkjyD5R5IW4fVFRERERERERERkI/pNA3d9JF2SnwOwCyrjFdwtLAk2R3cldkU0n9uVaMJPQqz7AoARNdb2ATwI4LMAdib5RZJ/rfGaIiIiIiIiIiIiEkA27QBpIrkcwFUArjKzEQBOROVArv02+NBgB5hlsRui2J9K/Jyj8UqQJWY2AMB3aqi6EMDvAfyeZLA/t4iIiIiIiIiIiESqXzdw10fy7wAuBXCpmY1FZV7u8QDGIugBZtHMv12OtaF2334JwK4BPt4H0AXgbgBTSP4tRE0RERERERERERGJgRq4G0GyC5Wm5gVmthuApoCXqL2Ba/gp2/BGoCVmgwB8qw8f+jwqh5H9CcD9JAPN2BUREREREREREZFkqIG7BSSfD76o5hEKy7ANfh5i3ZkA3rPB7/kAFgGYB6ADwIMkn6gpnYiIiIiIiIiIiCRCDdw41D5C4XIejDcDlTQbDOCLAOYA+CuAvwF4FIBbnfUrIiIiIiIiIiIiDUYN3HjU0sB9HaVQu2+7SY6soa6IiIiIiIiIiIjUGSftAFup3WpYeznHI/COWZLlGmqKiIiIiIiIiIhIHVIDN2K2GNsAGB5y+WtYg19GmUdEREREREREREQalxq4UVuG3QAw5OpLOREroowjIiIiIiIiIiIijUsN3KiFP8DsZQBXRBlFREREREREREREGpsOMYteuAYucSlzWB1xFhEREREREREREWlg2oEbNYY6wOwlrMWvI88iIiIiIiIiIiIiDU0N3KgRuwReY/gB29AdQxoRERERERERERFpYGrgRs0wIOCK57A9rokli4iIiIiIiIiIiDQ0NXCjtzTgx/+AI7E2liQiIiIiIiIiIiLS0NTAjd4dAPw+fuxSDMS1cYYRERERERERERGRxqUGbsSYx+MAftWHDy2D+AxHoSfuTCIiIiIiIiIiItKY1MCNx9cBXL+Z/74axMnMYVZSgURERERERERERKTxMO0AWzPz8EH4+DKIMQCGA3gGwP0Afs48lqSbTkREREREREREROrd/wPFvKkVE88W1gAAAABJRU5ErkJggg==;" parent="1" vertex="1">
          <mxGeometry x="293" y="765.27" width="242" height="39.46" as="geometry" />
        </mxCell>
      </root>
    </mxGraphModel>
  </diagram>
</mxfile>
